<?xml version="1.0" encoding="UTF-8"?>
<svg width="17px" height="18px" viewBox="0 0 17 18" version="1.1" xmlns="http://www.w3.org/2000/svg" xmlns:xlink="http://www.w3.org/1999/xlink">
    <!-- Generator: Sketch 63.1 (92452) - https://sketch.com -->
    <title>Bell</title>
    <desc>Created with Sketch.</desc>
    <g id="Logo-&amp;-Theme" stroke="none" stroke-width="1" fill="none" fill-rule="evenodd">
        <g id="Illustration" transform="translate(-509.000000, -898.000000)" fill="#FFFFFF" fill-rule="nonzero">
            <g id="Bell" transform="translate(509.000000, 898.000000)">
                <path d="M8.5859375,16.5625 C9.859375,16.5625 10.7890625,15.640625 10.8828125,14.59375 L6.2890625,14.59375 C6.3828125,15.640625 7.3125,16.5625 8.5859375,16.5625 Z" id="Path"></path>
                <path d="M14.4609375,13.578125 C15.1796875,13.578125 15.609375,13.203125 15.609375,12.6328125 C15.609375,11.8828125 14.875,11.2109375 14.2265625,10.5625 C13.7265625,10.0546875 13.6015625,9 13.53125,8.109375 C13.453125,5.3125 12.6875,3.375 10.7421875,2.671875 C10.453125,1.703125 9.671875,0.9453125 8.5859375,0.9453125 C7.4921875,0.9453125 6.71875,1.703125 6.4296875,2.671875 C4.484375,3.375 3.71875,5.3125 3.640625,8.109375 C3.5703125,9 3.4453125,10.0546875 2.9453125,10.5625 C2.296875,11.2109375 1.5546875,11.8828125 1.5546875,12.6328125 C1.5546875,13.203125 1.9921875,13.578125 2.7109375,13.578125 L14.4609375,13.578125 Z" id="Path"></path>
            </g>
        </g>
    </g>
</svg>