<?xml version="1.0" encoding="UTF-8"?>
<svg width="33px" height="33px" viewBox="0 0 33 33" version="1.1" xmlns="http://www.w3.org/2000/svg" xmlns:xlink="http://www.w3.org/1999/xlink">
    <!-- Generator: Sketch 59.1 (86144) - https://sketch.com -->
    <title>close</title>
    <desc>Created with Sketch.</desc>
    <g id="Logo-&amp;-Theme" stroke="none" stroke-width="1" fill="none" fill-rule="evenodd">
        <g id="Illustration" transform="translate(-431.000000, -889.000000)" fill="#212121" fill-rule="nonzero">
            <g id="close" transform="translate(431.000000, 889.000000)">
                <path d="M14.5,0 L14.5,33 C14.5,33.8284271 15.1715729,34.5 16,34.5 C16.8284271,34.5 17.5,33.8284271 17.5,33 L17.5,0 C17.5,-0.828427125 16.8284271,-1.5 16,-1.5 C15.1715729,-1.5 14.5,-0.828427125 14.5,0 Z" id="Line" transform="translate(16.000000, 16.500000) rotate(-135.000000) translate(-16.000000, -16.500000) "></path>
                <path d="M14.5,0 L14.5,33 C14.5,33.8284271 15.1715729,34.5 16,34.5 C16.8284271,34.5 17.5,33.8284271 17.5,33 L17.5,0 C17.5,-0.828427125 16.8284271,-1.5 16,-1.5 C15.1715729,-1.5 14.5,-0.828427125 14.5,0 Z" id="Line" transform="translate(16.000000, 16.500000) rotate(-45.000000) translate(-16.000000, -16.500000) "></path>
            </g>
        </g>
    </g>
</svg>