<?xml version="1.0" encoding="UTF-8"?>
<svg width="27px" height="24px" viewBox="0 0 27 24" version="1.1" xmlns="http://www.w3.org/2000/svg" xmlns:xlink="http://www.w3.org/1999/xlink">
    <!-- Generator: Sketch 59.1 (86144) - https://sketch.com -->
    <title>comment</title>
    <desc>Created with Sketch.</desc>
    <g id="Logo-&amp;-Theme" stroke="none" stroke-width="1" fill="none" fill-rule="evenodd">
        <g id="Illustration" transform="translate(-337.000000, -892.000000)" fill="#323030">
            <g id="Comment" transform="translate(337.000000, 892.000000)">
                <path d="M13.3558234,18.1329406 C18.8540941,18.1329406 22.8134325,14.7692795 22.8134325,10.5 C22.8134325,6.23072051 18.3263861,3 13.3558234,3 C8.38526064,3 4,6.37480734 4,10.5664703 C4,13.3717378 5.69974268,15.6861114 8.43321071,17.0930199 C8.62624598,17.1923746 8.11705539,17.877817 7.56056661,18.5354403 C6.87527169,19.3452786 6.17669281,19.9900004 6.89232886,20.3407927 C7.38597301,20.5827684 8.36232983,20.1868223 9.09118196,19.9146363 C11.2157703,19.1212201 12.2978035,18.0628978 12.4349327,18.1007263 C12.7246984,18.1806611 13.0434278,18.1329406 13.3558234,18.1329406 Z" id="Oval"></path>
            </g>
        </g>
    </g>
</svg>