<?xml version="1.0" encoding="UTF-8"?>
<svg width="1440px" height="64px" viewBox="0 0 1440 64" version="1.1" xmlns="http://www.w3.org/2000/svg" xmlns:xlink="http://www.w3.org/1999/xlink">
    <!-- Generator: Sketch 59.1 (86144) - https://sketch.com -->
    <title>Divider/Tiled</title>
    <desc>Created with Sketch.</desc>
    <g id="Main" stroke="none" stroke-width="1" fill="none" fill-rule="evenodd">
        <g id="Search-/-Landing-page" transform="translate(0.000000, -2440.000000)">
            <g id="Divider/Tiled" transform="translate(-15.000000, 2440.000000)">
                <g id="Group">
                    <rect id="Rectangle" fill="#323030" x="1408" y="0" width="64" height="64"></rect>
                    <rect id="Rectangle" fill="#882426" x="192" y="0" width="64" height="64"></rect>
                    <rect id="Rectangle" fill="#CDBEA7" x="128" y="0" width="64" height="64"></rect>
                    <rect id="Rectangle" fill="#323030" x="64" y="0" width="64" height="64"></rect>
                    <rect id="Rectangle" fill="#C29544" x="0" y="0" width="64" height="64"></rect>
                    <rect id="Rectangle" fill="#882426" x="960" y="0" width="64" height="64"></rect>
                    <rect id="Rectangle" fill="#CDBEA7" x="896" y="0" width="64" height="64"></rect>
                    <rect id="Rectangle" fill="#323030" x="768" y="0" width="64" height="64"></rect>
                    <rect id="Rectangle" fill="#C29544" x="704" y="0" width="64" height="64"></rect>
                    <rect id="Rectangle" fill="#FD974E" x="640" y="0" width="64" height="64"></rect>
                    <rect id="Rectangle" fill="#C60100" x="576" y="0" width="64" height="64"></rect>
                    <rect id="Rectangle" fill="#805A3B" x="512" y="0" width="64" height="64"></rect>
                    <rect id="Rectangle" fill="#FD974E" x="1216" y="0" width="64" height="64"></rect>
                    <rect id="Rectangle" fill="#C60100" x="1088" y="0" width="64" height="64"></rect>
                    <rect id="Rectangle" fill="#805A3B" x="832" y="0" width="64" height="64"></rect>
                    <rect id="Rectangle" fill="#4C3F54" transform="translate(288.000000, 32.000000) scale(-1, 1) translate(-288.000000, -32.000000) " x="256" y="0" width="64" height="64"></rect>
                    <rect id="Rectangle" fill="#D13526" transform="translate(352.000000, 32.000000) scale(-1, 1) translate(-352.000000, -32.000000) " x="320" y="0" width="64" height="64"></rect>
                    <rect id="Rectangle" fill="#F2BF58" transform="translate(416.000000, 32.000000) scale(-1, 1) translate(-416.000000, -32.000000) " x="384" y="0" width="64" height="64"></rect>
                    <rect id="Rectangle" fill="#486824" transform="translate(480.000000, 32.000000) scale(-1, 1) translate(-480.000000, -32.000000) " x="448" y="0" width="64" height="64"></rect>
                    <rect id="Rectangle" fill="#4C3F54" transform="translate(1056.000000, 32.000000) scale(-1, 1) translate(-1056.000000, -32.000000) " x="1024" y="0" width="64" height="64"></rect>
                    <rect id="Rectangle" fill="#D13526" transform="translate(1312.000000, 32.000000) scale(-1, 1) translate(-1312.000000, -32.000000) " x="1280" y="0" width="64" height="64"></rect>
                    <rect id="Rectangle" fill="#F2BF58" transform="translate(1184.000000, 32.000000) scale(-1, 1) translate(-1184.000000, -32.000000) " x="1152" y="0" width="64" height="64"></rect>
                    <rect id="Rectangle" fill="#486824" transform="translate(1376.000000, 32.000000) scale(-1, 1) translate(-1376.000000, -32.000000) " x="1344" y="0" width="64" height="64"></rect>
                </g>
            </g>
        </g>
    </g>
</svg>