<?xml version="1.0" encoding="UTF-8"?>
<svg width="23px" height="23px" viewBox="0 0 23 23" version="1.1" xmlns="http://www.w3.org/2000/svg" xmlns:xlink="http://www.w3.org/1999/xlink">
    <!-- Generator: Sketch 59.1 (86144) - https://sketch.com -->
    <title>logo_googleg_48dp</title>
    <desc>Created with Sketch.</desc>
    <g id="Main" stroke="none" stroke-width="1" fill="none" fill-rule="evenodd">
        <g id="Sign-up" transform="translate(-521.000000, -305.000000)">
            <g id="Google-sign-up" transform="translate(505.000000, 290.000000)">
                <g id="logo_googleg_48dp" transform="translate(16.000000, 15.000000)">
                    <path d="M22.54,11.7613636 C22.54,10.9459091 22.4668182,10.1618182 22.3309091,9.40909091 L11.5,9.40909091 L11.5,13.8575 L17.6890909,13.8575 C17.4225,15.295 16.6122727,16.5129545 15.3943182,17.3284091 L15.3943182,20.2138636 L19.1109091,20.2138636 C21.2854545,18.2118182 22.54,15.2636364 22.54,11.7613636 L22.54,11.7613636 Z" id="Shape" fill="#4285F4"></path>
                    <path d="M11.5,23 C14.605,23 17.2081818,21.9702273 19.1109091,20.2138636 L15.3943182,17.3284091 C14.3645455,18.0184091 13.0472727,18.4261364 11.5,18.4261364 C8.50477273,18.4261364 5.96954545,16.4031818 5.06522727,13.685 L1.22318182,13.685 L1.22318182,16.6645455 C3.11545455,20.4229545 7.00454545,23 11.5,23 L11.5,23 Z" id="Shape" fill="#34A853"></path>
                    <path d="M5.06522727,13.685 C4.83522727,12.995 4.70454545,12.2579545 4.70454545,11.5 C4.70454545,10.7420455 4.83522727,10.005 5.06522727,9.315 L5.06522727,6.33545455 L1.22318182,6.33545455 C0.444318182,7.88795455 0,9.64431818 0,11.5 C0,13.3556818 0.444318182,15.1120455 1.22318182,16.6645455 L5.06522727,13.685 L5.06522727,13.685 Z" id="Shape" fill="#FBBC05"></path>
                    <path d="M11.5,4.57386364 C13.1884091,4.57386364 14.7043182,5.15409091 15.8961364,6.29363636 L19.1945455,2.99522727 C17.2029545,1.13954545 14.5997727,0 11.5,0 C7.00454545,0 3.11545455,2.57704545 1.22318182,6.33545455 L5.06522727,9.315 C5.96954545,6.59681818 8.50477273,4.57386364 11.5,4.57386364 L11.5,4.57386364 Z" id="Shape" fill="#EA4335"></path>
                    <polygon id="Shape" points="0 0 23 0 23 23 0 23"></polygon>
                </g>
            </g>
        </g>
    </g>
</svg>