<?xml version="1.0" encoding="UTF-8"?>
<svg width="28px" height="28px" viewBox="0 0 28 28" version="1.1" xmlns="http://www.w3.org/2000/svg" xmlns:xlink="http://www.w3.org/1999/xlink">
    <!-- Generator: Sketch 63.1 (92452) - https://sketch.com -->
    <title>like</title>
    <desc>Created with Sketch.</desc>
    <g id="Logo-&amp;-Theme" stroke="none" stroke-width="1" fill="none" fill-rule="evenodd">
        <g id="Illustration" transform="translate(-504.000000, -940.000000)" fill="#FD974E" fill-rule="nonzero">
            <g id="like" transform="translate(504.000000, 940.000000)">
                <path d="M21.6064453,25.6611328 C22.5219727,25.4536133 23.425293,24.8676758 23.425293,23.7446289 C23.425293,23.2929688 23.3032227,22.9633789 23.1445313,22.7070312 C23.059082,22.5605469 23.0712891,22.4384766 23.2055664,22.3774414 C23.9379883,22.0600586 24.5605469,21.4008789 24.5605469,20.4609375 C24.5605469,19.9238281 24.4140625,19.4599609 24.1455078,19.1181641 C24.0112305,18.9472656 24.0478516,18.8007812 24.2553711,18.6787109 C24.7924805,18.3735352 25.1464844,17.7021484 25.1464844,16.9331055 C25.1464844,16.3837891 24.9633789,15.7978516 24.6459961,15.5048828 C24.4750977,15.3461914 24.4995117,15.2363281 24.7070313,15.0654297 C25.0854492,14.7724609 25.2929688,14.2231445 25.2929688,13.5517578 C25.2929688,12.4165039 24.4140625,11.4887695 23.2543945,11.4887695 L19.0917969,11.4887695 C18.0419922,11.4887695 17.3339844,10.9394531 17.3339844,10.0849609 C17.3339844,8.47363281 19.3237305,5.58056641 19.3237305,3.50537109 C19.3237305,2.41894531 18.6157227,1.77197266 17.6879883,1.77197266 C16.8457031,1.77197266 16.4306641,2.35791016 15.9667969,3.23681641 C14.2333984,6.65478516 11.8896484,9.41357422 10.0952148,11.7817383 C8.58154297,13.8081055 7.83691406,15.5048828 7.8125,18.300293 C7.75146484,22.597168 11.2304688,25.8808594 16.6992188,25.9174805 L18.3105469,25.9296875 C19.8486328,25.9418945 20.9594727,25.8320312 21.6064453,25.6611328 Z" id="Path"></path>
                <path d="M9.22851562,24.8066406 C7.12890625,23.2563477 6.16455078,20.9248047 6.20117188,18.2636719 C6.25,15.3217773 7.39746094,13.1977539 8.42285156,11.9282227 L6.71386719,11.9282227 C4.08935547,11.9282227 2.06298828,14.7602539 2.06298828,18.3857422 C2.06298828,21.8769531 4.23583984,24.8066406 7.15332031,24.8066406 L9.22851562,24.8066406 Z" id="Path"></path>
            </g>
        </g>
    </g>
</svg>