<?xml version="1.0" encoding="UTF-8"?>
<svg width="209px" height="39px" viewBox="0 0 209 39" version="1.1" xmlns="http://www.w3.org/2000/svg" xmlns:xlink="http://www.w3.org/1999/xlink">
    <!-- Generator: Sketch 59.1 (86144) - https://sketch.com -->
    <title>Logo</title>
    <desc>Created with Sketch.</desc>
    <g id="Symbols" stroke="none" stroke-width="1" fill="none" fill-rule="evenodd">
        <g id="Header" transform="translate(-60.000000, -13.000000)">
            <g id="Logo" transform="translate(60.000000, 13.000000)">
                <g id="Logo/Icon">
                    <g id="Group" transform="translate(20.500000, 16.500000) scale(-1, -1) rotate(90.000000) translate(-20.500000, -16.500000) translate(4.000000, -4.000000)">
                        <rect id="Rectangle" fill="#C60100" x="8.5" y="0.5" width="8" height="8"></rect>
                        <g id="Horizontal" transform="translate(0.500000, 0.500000)">
                            <rect id="Rectangle" fill="#486824" x="0" y="32" width="8" height="8"></rect>
                            <polygon id="Rectangle" fill="#882426" transform="translate(4.000000, 28.000000) rotate(90.000000) translate(-4.000000, -28.000000) " points="2.02977211e-31 24 8 24 8 32 -2.69853312e-17 32"></polygon>
                            <polygon id="Rectangle" fill="#CDBEA7" transform="translate(4.000000, 20.000000) rotate(90.000000) translate(-4.000000, -20.000000) " points="2.02977211e-31 16 8 16 8 24 -2.69853312e-17 24"></polygon>
                            <polygon id="Rectangle" fill="#323030" transform="translate(4.000000, 12.000000) rotate(90.000000) translate(-4.000000, -12.000000) " points="2.02977211e-31 8 8 8 8 16 -2.69853312e-17 16"></polygon>
                            <polygon id="Rectangle" fill="#C29544" transform="translate(4.000000, 4.000000) rotate(90.000000) translate(-4.000000, -4.000000) " points="3.38987711e-14 -5.55111512e-17 8 -5.55111512e-17 8 8 3.35681489e-14 8"></polygon>
                        </g>
                        <g id="Tall" transform="translate(8.500000, 32.500000)">
                            <rect id="Rectangle" fill="#4C3F54" x="16" y="0" width="8" height="8"></rect>
                            <rect id="Rectangle" fill="#D13526" x="8" y="0" width="8" height="8"></rect>
                            <rect id="Rectangle" fill="#F2BF58" x="0" y="0" width="8" height="8"></rect>
                        </g>
                        <g id="Middle" transform="translate(8.500000, 16.500000)">
                            <rect id="Rectangle" fill="#805A3B" transform="translate(4.000000, 4.000000) scale(1, -1) translate(-4.000000, -4.000000) " x="0" y="0" width="8" height="8"></rect>
                            <rect id="Rectangle" fill="#FD974E" transform="translate(12.000000, 4.000000) scale(1, -1) translate(-12.000000, -4.000000) " x="8" y="0" width="8" height="8"></rect>
                        </g>
                    </g>
                </g>
                <path d="M75.8637515,7.65843621 C75.76531,8.59122551 75.6976325,9.50068144 75.660717,10.3868313 L75.6395282,10.9275861 C75.6167386,11.553171 75.6053439,12.0491849 75.6053439,12.4156379 C75.6053439,12.8447209 75.6132191,13.2588745 75.6289697,13.6581063 L75.6422593,13.9547325 C75.6668696,14.4444469 75.6914796,14.8641958 75.71609,15.2139918 L74.8670366,15.2139918 C74.6455433,13.5116513 74.3440709,12.1766166 73.9626102,11.2088477 C73.5811495,10.2410788 73.0089671,9.54149736 72.2460457,9.1100823 C71.4831244,8.67866725 70.3879795,8.46296296 68.9605782,8.46296296 L67.0040639,8.46296296 C66.2165322,8.46296296 65.6197397,8.52709127 65.2136687,8.65534979 C64.8075976,8.78360832 64.5307352,9.04012153 64.383073,9.42489712 C64.2354108,9.80967271 64.1615808,10.4101468 64.1615808,11.2263374 L64.1615808,28.6460905 C64.1615808,29.5089206 64.2600208,30.1560335 64.4569037,30.5874486 C64.6537866,31.0188636 65.0229366,31.304526 65.5643647,31.4444444 C66.1057927,31.5843628 66.9056176,31.6659807 67.9638634,31.6893004 L67.9638634,32.4238683 C67.2993835,32.3772288 66.4380336,32.3480796 65.3797878,32.3364198 L64.0921793,32.3252263 C63.4395171,32.3210288 62.7735665,32.31893 62.0943204,32.31893 L60.9337005,32.3217284 C60.3637284,32.3245267 59.809262,32.3294238 59.2702949,32.3364198 L58.7483103,32.3455144 C58.0749735,32.3604389 57.4922073,32.3865567 57,32.4238683 L57,31.7242798 C57.8367525,31.6776404 58.4643074,31.5843628 58.8826836,31.4444444 C59.3010598,31.304526 59.5779223,31.0246935 59.7132793,30.6049383 C59.8486363,30.1851831 59.9163138,29.5555598 59.9163138,28.7160494 L59.9163138,11.3662551 C59.9163138,10.503425 59.8486363,9.86797186 59.7132793,9.45987654 C59.5779223,9.05178122 59.2949073,8.77194863 58.8642259,8.62037037 C58.4335445,8.46879211 57.8121421,8.38134442 57,8.35802469 L57,7.65843621 L61.0422325,7.72839506 L61.0422325,7.72839506 L62.1058586,7.74369861 C63.1533316,7.75681591 64.1523472,7.76337449 65.1029226,7.76337449 L69.1090037,7.76207361 C69.5511739,7.76091727 70.0136822,7.75899004 70.4965302,7.7562919 L72.0060958,7.74588477 C73.4458023,7.73422491 74.7316746,7.70507568 75.8637515,7.65843621 Z M63.0541198,19.9012346 L70.2157006,19.9012346 L70.2157006,20.600823 L63.0541198,20.600823 L63.0541198,19.9012346 Z M70.1418699,15.2839506 L70.9909233,15.2839506 L70.9584785,15.7400162 C70.888139,16.7736668 70.855354,17.5938008 70.8601228,18.2004352 L70.8741502,19.194508 C70.8761592,19.3801127 70.877666,19.5609581 70.8786705,19.7370448 L70.8801772,20.2510288 C70.8801772,20.7507374 70.8892176,21.293271 70.9072987,21.8786419 L70.9273114,22.4348833 C70.9566904,23.1175274 71.0148093,24.0452616 71.1016694,25.218107 L70.252616,25.218107 C70.1541745,24.4485558 70.0065146,23.7081654 69.8096316,22.9969136 C69.6127487,22.2856617 69.2559037,21.708507 68.739086,21.2654321 C68.2222683,20.8223572 67.4470534,20.600823 66.4134181,20.600823 L66.4134181,19.9012346 C67.4470534,19.9012346 68.2099634,19.6388915 68.7021707,19.1141975 C69.194378,18.5895035 69.5327655,17.9657101 69.7173432,17.2427984 C69.901921,16.5198866 70.0434284,15.8669439 70.1418699,15.2839506 Z M87.0860224,13.8847737 C88.7349169,13.8847737 90.1992118,14.211245 91.4789508,14.8641975 C92.7586899,15.51715 93.7800048,16.5432029 94.5429261,17.9423868 C95.3058475,19.3415708 95.6873024,21.1721423 95.6873024,23.4341564 C95.6873024,25.6961704 95.3058475,27.5209121 94.5429261,28.9084362 C93.7800048,30.2959603 92.7586899,31.3103534 91.4789508,31.9516461 C90.1992118,32.5929387 88.7349169,32.9135802 87.0860224,32.9135802 C85.4617382,32.9135802 83.9974434,32.5929387 82.693094,31.9516461 C81.3887446,31.3103534 80.3612772,30.2959603 79.610661,28.9084362 C78.8600448,27.5209121 78.4847424,25.6961704 78.4847424,23.4341564 C78.4847424,21.1721423 78.8600448,19.3415708 79.610661,17.9423868 C80.3612772,16.5432029 81.3887446,15.51715 82.693094,14.8641975 C83.9974434,14.211245 85.4617382,13.8847737 87.0860224,13.8847737 Z M87.0860224,14.5843621 C85.8062834,14.5843621 84.7603585,15.2781138 83.9482164,16.6656379 C83.1360743,18.0531619 82.7300093,20.3093122 82.7300093,23.4341564 C82.7300093,26.5590005 83.1360743,28.8034911 83.9482164,30.1676955 C84.7603585,31.5318998 85.8062834,32.2139918 87.0860224,32.2139918 C88.3411511,32.2139918 89.3809235,31.5318998 90.2053707,30.1676955 C91.029818,28.8034911 91.4420355,26.5590005 91.4420355,23.4341564 C91.4420355,20.3093122 91.029818,18.0531619 90.2053707,16.6656379 C89.3809235,15.2781138 88.3411511,14.5843621 87.0860224,14.5843621 Z M107.537135,13.8847737 C109.186029,13.8847737 110.650324,14.211245 111.930063,14.8641975 C113.209802,15.51715 114.231117,16.5432029 114.994038,17.9423868 C115.75696,19.3415708 116.138415,21.1721423 116.138415,23.4341564 C116.138415,25.6961704 115.75696,27.5209121 114.994038,28.9084362 C114.231117,30.2959603 113.209802,31.3103534 111.930063,31.9516461 C110.650324,32.5929387 109.186029,32.9135802 107.537135,32.9135802 C105.91285,32.9135802 104.448556,32.5929387 103.144206,31.9516461 C101.839857,31.3103534 100.812389,30.2959603 100.061773,28.9084362 C99.311157,27.5209121 98.9358545,25.6961704 98.9358545,23.4341564 C98.9358545,21.1721423 99.311157,19.3415708 100.061773,17.9423868 C100.812389,16.5432029 101.839857,15.51715 103.144206,14.8641975 C104.448556,14.211245 105.91285,13.8847737 107.537135,13.8847737 Z M107.537135,14.5843621 C106.257396,14.5843621 105.211471,15.2781138 104.399329,16.6656379 C103.587186,18.0531619 103.181122,20.3093122 103.181122,23.4341564 C103.181122,26.5590005 103.587186,28.8034911 104.399329,30.1676955 C105.211471,31.5318998 106.257396,32.2139918 107.537135,32.2139918 C108.792263,32.2139918 109.832036,31.5318998 110.656483,30.1676955 C111.48093,28.8034911 111.893148,26.5590005 111.893148,23.4341564 C111.893148,20.3093122 111.48093,18.0531619 110.656483,16.6656379 C109.832036,15.2781138 108.792263,14.5843621 107.537135,14.5843621 Z M136.035796,5 L136.035796,28.6111111 C136.035796,29.6604991 136.226524,30.4358685 136.607984,30.9372428 C136.989445,31.438617 137.684678,31.6893004 138.693703,31.6893004 L138.693703,32.4238683 C137.930781,32.3539091 137.167871,32.31893 136.40495,32.31893 C135.568197,32.31893 134.78683,32.3539091 134.060824,32.4238683 C133.334818,32.4938275 132.664196,32.6220841 132.048937,32.808642 L132.048937,9.19753086 C132.048937,8.1481429 131.858209,7.37277343 131.476749,6.87139918 C131.095288,6.37002493 130.400056,6.11934156 129.391031,6.11934156 L129.391031,5.38477366 C130.178562,5.45473286 130.941472,5.48971193 131.679783,5.48971193 C132.491925,5.48971193 133.26714,5.44890301 134.005451,5.36728395 C134.743762,5.28566489 135.420537,5.16323813 136.035796,5 Z M127.729839,13.8847737 C128.812695,13.8847737 129.803248,14.1063078 130.701526,14.5493827 C131.599804,14.9924576 132.233512,15.7386779 132.602667,16.7880658 L132.159683,17.1728395 C131.815138,16.3333291 131.310633,15.7211953 130.646153,15.3364198 C129.981673,14.9516442 129.231068,14.7592593 128.394316,14.7592593 C126.991525,14.7592593 125.84716,15.4646706 124.961187,16.8755144 C124.1029,18.2422694 123.6719,20.3257282 123.668176,23.1259502 L123.669149,23.399177 C123.669149,25.3347148 123.841419,26.9146029 124.185964,28.1388889 C124.530509,29.3631748 125.041167,30.2668009 125.717952,30.8497942 C126.394737,31.4327876 127.213019,31.7242798 128.172824,31.7242798 C129.132628,31.7242798 130.00013,31.33951 130.775357,30.5699588 C131.550583,29.8004077 132.012021,28.692737 132.159683,27.2469136 L132.491921,27.9814815 C132.245818,29.5672233 131.655178,30.785661 130.719984,31.6368313 C129.78479,32.4880015 128.52968,32.9135802 126.954617,32.9135802 C125.453384,32.9135802 124.130597,32.5696194 122.986215,31.8816872 C121.841833,31.1937551 120.962022,30.1443829 120.346766,28.7335391 C119.731507,27.3226953 119.423882,25.5445923 119.423882,23.399177 C119.423882,21.2770813 119.799185,19.5106381 120.549801,18.0997942 C121.300417,16.6889504 122.303274,15.6337484 123.558403,14.9341564 C124.813532,14.2345644 126.203996,13.8847737 127.729839,13.8847737 Z M145.375384,32.6687243 C143.751099,32.6687243 142.575972,32.2781246 141.849966,31.4969136 C141.12396,30.7157025 140.760963,29.7187989 140.760963,28.5061728 C140.760963,27.5034243 141.007063,26.6872459 141.49927,26.0576132 C141.991478,25.4279804 142.625185,24.9091241 143.400412,24.5010288 C144.175638,24.0929335 145.000073,23.7431427 145.873741,23.4516461 L147.147321,23.0231481 C147.559542,22.8832308 147.959457,22.7462284 148.34707,22.6121399 C149.122297,22.343963 149.762157,22.0349812 150.266669,21.6851852 C150.771182,21.3353892 151.023434,20.8923209 151.023434,20.3559671 L151.023434,17.9773663 C151.023434,17.1378559 150.881927,16.4674236 150.598908,15.9660494 C150.315889,15.4646751 149.934434,15.1090545 149.454531,14.899177 C148.974629,14.6892994 148.402447,14.5843621 147.737967,14.5843621 C147.171929,14.5843621 146.568984,14.6601501 145.929114,14.8117284 C145.289245,14.9633067 144.78474,15.2606288 144.415584,15.7037037 C144.957012,15.8436221 145.406145,16.1176248 145.762995,16.5257202 C146.119845,16.9338155 146.298268,17.4410121 146.298268,18.0473251 C146.298268,18.7002776 146.070625,19.213304 145.615333,19.5864198 C145.160042,19.9595355 144.587859,20.1460905 143.898769,20.1460905 C143.135848,20.1460905 142.569818,19.9187266 142.200662,19.4639918 C141.831507,19.009257 141.646932,18.478741 141.646932,17.872428 C141.646932,17.2427952 141.813049,16.7297688 142.145289,16.3333333 C142.477529,15.9368979 142.914357,15.5637878 143.455785,15.2139918 C144.046433,14.840876 144.803191,14.5260644 145.72608,14.2695473 C146.648968,14.0130303 147.676436,13.8847737 148.808513,13.8847737 C149.866758,13.8847737 150.783481,13.9955407 151.558707,14.2170782 C152.274301,14.4215743 152.879795,14.7403188 153.375205,15.17332 L153.496764,15.2839506 C154.112023,15.8203045 154.518088,16.4907367 154.714971,17.2952675 C154.911854,18.0997983 155.010294,19.0733825 155.010294,20.2160494 L155.010294,29.8703704 C155.010294,30.430044 155.084124,30.8381331 155.231786,31.0946502 C155.379448,31.3511673 155.650158,31.4794239 156.043924,31.4794239 C156.339248,31.4794239 156.609958,31.4094657 156.856062,31.2695473 C157.102166,31.1296289 157.348266,30.9663933 157.594369,30.7798354 L157.963523,31.3744856 C157.446705,31.770921 156.923743,32.0857327 156.39462,32.31893 C155.865497,32.5521274 155.194875,32.6687243 154.382733,32.6687243 C153.029162,32.6687243 152.13705,32.3655723 151.706369,31.7592593 C151.275687,31.1529462 151.048045,30.4533647 151.023434,29.6604938 C150.309734,30.8031607 149.466841,31.5901899 148.494732,32.0216049 C147.522622,32.45302 146.48285,32.6687243 145.375384,32.6687243 Z M147.405729,30.9897119 C148.045598,30.9897119 148.673153,30.8206464 149.288412,30.4825103 C149.903671,30.1443742 150.482006,29.5672194 151.023434,28.7510288 L151.023434,21.7901235 C150.678889,22.2798378 150.155927,22.6762673 149.454531,22.9794239 C148.753136,23.2825804 148.039446,23.6148816 147.31344,23.9763374 C146.587434,24.3377933 145.966032,24.8216705 145.449214,25.4279835 C144.932397,26.0342966 144.673992,26.8737944 144.673992,27.9465021 C144.673992,28.99589 144.932397,29.7654297 145.449214,30.255144 C145.966032,30.7448584 146.618197,30.9897119 147.405729,30.9897119 Z M170.625493,13.8847737 C172.594323,13.8847737 174.23704,14.6601431 175.553694,16.2109053 C176.870349,17.7616676 177.528666,20.1110954 177.528666,23.2592593 C177.528666,25.4746338 177.147211,27.2935457 176.38429,28.7160494 C175.621369,30.1385531 174.606206,31.1937551 173.338773,31.8816872 C172.071339,32.5696194 170.699331,32.9135802 169.222709,32.9135802 C168.066022,32.9135802 166.958572,32.6395775 165.900326,32.0915638 C164.842081,31.5435501 164.029951,30.7098821 163.463912,29.590535 L164.128389,29.7654321 C164.669817,30.558303 165.346592,31.1529473 166.158734,31.5493827 C166.970876,31.9458182 167.795311,32.1440329 168.632064,32.1440329 C170.182517,32.1440329 171.345339,31.4327917 172.120565,30.0102881 C172.895792,28.5877844 173.283399,26.3957624 173.283399,23.4341564 C173.283399,21.4986186 173.129587,19.9129006 172.821957,18.6769547 C172.514328,17.4410089 172.059043,16.5373828 171.456089,15.9660494 C170.853135,15.3947159 170.096378,15.1090535 169.185794,15.1090535 C168.127548,15.1090535 167.155453,15.5404621 166.26948,16.4032922 C165.383507,17.2661223 164.854392,18.5137093 164.682119,20.1460905 L164.312966,19.4115226 C164.657511,17.6625427 165.401963,16.3041887 166.546345,15.3364198 C167.690727,14.3686509 169.05043,13.8847737 170.625493,13.8847737 Z M164.903612,5.03497942 L164.903612,30.9897119 C164.485235,31.1296303 164.05456,31.3045257 163.611574,31.5144033 C163.168587,31.7242809 162.750217,31.9516449 162.356451,32.1965021 C161.962686,32.4413592 161.593536,32.7037023 161.248991,32.9835391 L160.658345,32.7037037 C160.756786,32.3772274 160.824464,32.0507561 160.861379,31.7242798 C160.898295,31.3978036 160.916752,31.0596725 160.916752,30.7098765 L160.916752,9.23251029 C160.916752,8.18312233 160.726025,7.40775285 160.344564,6.9063786 C159.963103,6.40500435 159.267871,6.15432099 158.258846,6.15432099 L158.258846,5.41975309 C159.046378,5.48971228 159.809288,5.52469136 160.547599,5.52469136 C161.359741,5.52469136 162.134956,5.48388244 162.873267,5.40226337 C163.611578,5.32064431 164.288352,5.19821755 164.903612,5.03497942 Z M186.572931,5 L186.572931,29.1707819 C186.572931,30.1502107 186.775963,30.8148131 187.182034,31.1646091 C187.588105,31.514405 188.271033,31.6893004 189.230837,31.6893004 L189.230837,32.4238683 L188.564101,32.3906736 C188.210518,32.3744926 187.780593,32.3564081 187.274323,32.3364198 C186.38835,32.3014402 185.50239,32.2839506 184.616417,32.2839506 C183.951937,32.2839506 183.284003,32.2937885 182.612606,32.3134644 L181.225852,32.3649744 C180.677144,32.3875802 180.244584,32.4072114 179.928165,32.4238683 L179.928165,31.6893004 C180.887969,31.6893004 181.570897,31.514405 181.976968,31.1646091 C182.383039,30.8148131 182.586071,30.1502107 182.586071,29.1707819 L182.586071,9.19753086 C182.586071,8.1481429 182.401496,7.37277343 182.032341,6.87139918 C181.663185,6.37002493 180.961801,6.11934156 179.928165,6.11934156 L179.928165,5.38477366 C180.715697,5.45473286 181.478607,5.48971193 182.216918,5.48971193 C183.02906,5.48971193 183.804275,5.44890301 184.542586,5.36728395 C185.280897,5.28566489 185.957672,5.16323813 186.572931,5 Z M201.115889,28.1391688 L204.698375,19.1316872 C205.239803,17.7325033 205.307481,16.7297698 204.90141,16.1234568 C204.495338,15.5171437 203.664751,15.167353 202.409622,15.0740741 L202.409622,14.3744856 L203.290977,14.409465 C203.570918,14.4211248 203.837015,14.4327846 204.089272,14.4444444 C204.593784,14.4677642 205.116746,14.4794239 205.658175,14.4794239 C206.199603,14.4794239 206.71026,14.4677642 207.190162,14.4444444 L208.076131,14.3978052 C208.211487,14.390032 208.34069,14.3822588 208.463742,14.3744856 L208.463742,15.0740741 C207.996145,15.1440333 207.56547,15.3713973 207.171704,15.7561728 C206.777939,16.1409484 206.396484,16.799721 206.027328,17.7325103 L200.268531,32.3539095 L199.382562,33.1934156 L192.184066,17.0679012 C191.716469,16.1584317 191.267337,15.6045963 190.836655,15.4063786 C190.405974,15.2081609 190.042977,15.1090535 189.747652,15.1090535 L189.747652,14.3744856 C190.362911,14.4444448 191.015076,14.4969134 191.704167,14.531893 C192.393257,14.5668726 193.106947,14.5843621 193.845258,14.5843621 C194.68201,14.5843621 195.524903,14.5610428 196.37396,14.5144033 L197.606011,14.4444444 C198.00285,14.4211249 198.385846,14.3978053 198.755001,14.3744856 L198.755001,15.1090535 C198.164352,15.1090535 197.64139,15.1498624 197.186098,15.2314815 C196.730806,15.3131005 196.435487,15.5346347 196.30013,15.8960905 C196.164772,16.2575464 196.28167,16.8696802 196.650825,17.7325103 L201.115889,28.1391688 L201.115889,28.1391688 Z M200.268531,32.3539095 L198.939578,35.6419753 C198.497959,36.7431849 198.001467,37.5323742 197.450089,38.0095638 L197.352217,38.090535 C196.983062,38.4170112 196.527777,38.6502051 195.986349,38.7901235 C195.444921,38.9300419 194.903501,39 194.362073,39 C193.845255,39 193.359208,38.9125523 192.903916,38.7376543 C192.448624,38.5627563 192.073322,38.3004133 191.777997,37.9506173 C191.482673,37.6008213 191.335013,37.1694127 191.335013,36.6563786 C191.335013,36.0500656 191.544198,35.5603585 191.962574,35.1872428 C192.38095,34.8141271 192.934675,34.627572 193.623766,34.627572 C194.239025,34.627572 194.755835,34.7849778 195.174211,35.0997942 C195.592587,35.4146106 195.801772,35.8751684 195.801772,36.4814815 C195.801772,36.9012367 195.684875,37.2626871 195.451076,37.5658436 C195.217278,37.8690001 194.915805,38.102194 194.54665,38.2654321 C194.620481,38.2887518 194.694311,38.3004115 194.768142,38.3004115 L194.952719,38.3004115 C195.641809,38.3004115 196.257059,38.0847072 196.798487,37.6532922 C197.306076,37.2488406 197.737953,36.6138197 198.094129,35.7482124 L199.493309,32.2139918 L200.268531,32.3539095 Z" id="Foodably" fill="#212121" fill-rule="nonzero"></path>
            </g>
        </g>
    </g>
</svg>