<?xml version="1.0" encoding="UTF-8"?>
<svg width="25px" height="24px" viewBox="0 0 25 24" version="1.1" xmlns="http://www.w3.org/2000/svg" xmlns:xlink="http://www.w3.org/1999/xlink">
    <!-- Generator: Sketch 63.1 (92452) - https://sketch.com -->
    <title>plus_filled</title>
    <desc>Created with Sketch.</desc>
    <g id="Logo-&amp;-Theme" stroke="none" stroke-width="1" fill="none" fill-rule="evenodd">
        <g id="Illustration" transform="translate(-757.000000, -898.000000)" fill="#FFFFFF" fill-rule="nonzero">
            <g id="plus_filled" transform="translate(756.980469, 897.640625)">
                <path d="M12.3554688,1 C18.5664062,1 23.7226562,6.14453125 23.7226562,12.3554688 C23.7226562,18.578125 18.578125,23.7226562 12.3671875,23.7226562 C6.15625,23.7226562 1,18.578125 1,12.3554688 C1,6.14453125 6.14453125,1 12.3554688,1 Z M12.34375,6.6484375 C11.6992188,6.6484375 11.3359375,7.10546875 11.3359375,7.7734375 L11.3359375,7.7734375 L11.3359375,11.3476562 L7.78515625,11.3476562 C7.08203125,11.3476562 6.63671875,11.7226562 6.63671875,12.3789062 C6.63671875,13.0117188 7.10546875,13.375 7.78515625,13.375 L7.78515625,13.375 L11.3359375,13.375 L11.3359375,16.75 C11.3359375,17.40625 11.6992188,17.875 12.34375,17.875 C12.9765625,17.875 13.375,17.4296875 13.375,16.75 L13.375,16.75 L13.375,13.375 L16.9375,13.375 C17.6054688,13.375 18.0625,13.0117188 18.0625,12.3789062 C18.0625,11.7226562 17.6289062,11.3476562 16.9375,11.3476562 L16.9375,11.3476562 L13.375,11.3476562 L13.375,7.7734375 C13.375,7.09375 12.9765625,6.6484375 12.34375,6.6484375 Z" id="Combined-Shape"></path>
            </g>
        </g>
    </g>
</svg>