<?xml version="1.0" encoding="UTF-8"?>
<svg width="15px" height="16px" viewBox="0 0 15 16" version="1.1" xmlns="http://www.w3.org/2000/svg" xmlns:xlink="http://www.w3.org/1999/xlink">
    <!-- Generator: Sketch 63.1 (92452) - https://sketch.com -->
    <title>plus</title>
    <desc>Created with Sketch.</desc>
    <g id="Logo-&amp;-Theme" stroke="none" stroke-width="1" fill="none" fill-rule="evenodd">
        <g id="Illustration" transform="translate(-866.000000, -905.000000)" fill="#FFFFFF" fill-rule="nonzero">
            <g id="plus" transform="translate(866.000000, 905.000000)">
                <path d="M12.2338867,7.70898438 C12.5790647,7.70898438 12.8588867,7.98880641 12.8588867,8.33398437 C12.8588867,8.64778253 12.6276288,8.90756751 12.3262446,8.95220777 L12.2338867,8.95898438 L2.76357154,8.95898438 C2.41839357,8.95898438 2.13857154,8.67916234 2.13857154,8.33398437 C2.13857154,8.02018622 2.36982942,7.76040124 2.67121362,7.71576098 L2.76357154,7.70898438 L12.2338867,7.70898438 Z" id="Path"></path>
                <path d="M12.3816913,7.70883722 C12.7036763,7.70883722 12.9646966,7.98865925 12.9646966,8.33383722 C12.9646966,8.64763537 12.7489773,8.90742036 12.4678436,8.95206062 L12.3816913,8.95883722 L2.61703778,8.96010809 C2.29505287,8.96010809 2.03403253,8.68028606 2.03403253,8.33510809 C2.03403253,8.02130994 2.24975182,7.76152496 2.53088554,7.7168847 L2.61703778,7.71010809 L12.3816913,7.70883722 Z" id="Path" transform="translate(7.499365, 8.334473) rotate(90.000000) translate(-7.499365, -8.334473) "></path>
            </g>
        </g>
    </g>
</svg>