<?xml version="1.0" encoding="UTF-8"?>
<svg width="23px" height="26px" viewBox="0 0 23 26" version="1.1" xmlns="http://www.w3.org/2000/svg" xmlns:xlink="http://www.w3.org/1999/xlink">
    <!-- Generator: Sketch 63.1 (92452) - https://sketch.com -->
    <title>trash_can</title>
    <desc>Created with Sketch.</desc>
    <g id="Logo-&amp;-Theme" stroke="none" stroke-width="1" fill="none" fill-rule="evenodd">
        <g id="Illustration" transform="translate(-695.000000, -897.000000)" fill="#FFFFFF" fill-rule="nonzero">
            <g id="trash_can" transform="translate(694.699219, 896.613281)">
                <path d="M13.84375,1 C15.6132812,1 16.7148438,2.0546875 16.7148438,3.68359375 L16.7148438,3.68359375 L16.7148438,5.2890625 L21.7304688,5.2890625 C22.2109375,5.2890625 22.609375,5.6875 22.609375,6.1796875 C22.609375,6.66015625 22.2109375,7.05859375 21.7304688,7.05859375 L21.7304688,7.05859375 L20.078125,7.05859375 L19.3632812,23.1835938 C19.3046875,24.6132812 18.4492188,25.3867188 17.03125,25.3867188 L17.03125,25.3867188 L6.58984375,25.3867188 C5.16015625,25.3867188 4.31640625,24.6132812 4.2578125,23.1835938 L4.2578125,23.1835938 L3.54296875,7.05859375 L1.87890625,7.05859375 C1.3984375,7.05859375 1,6.66015625 1,6.1796875 C1,5.6875 1.3984375,5.2890625 1.87890625,5.2890625 L1.87890625,5.2890625 L6.89453125,5.2890625 L6.89453125,3.68359375 C6.89453125,2.0546875 7.99609375,1 9.75390625,1 L9.75390625,1 Z M7.421875,8.6171875 C7,8.6171875 6.671875,8.96875 6.68359375,9.44921875 L6.68359375,9.44921875 L7.1640625,21.4960938 C7.17578125,21.9765625 7.48046875,22.328125 7.890625,22.328125 C8.32421875,22.328125 8.640625,21.9414062 8.62890625,21.484375 L8.62890625,21.484375 L8.18359375,9.4375 C8.16015625,8.9921875 7.8203125,8.6171875 7.421875,8.6171875 Z M11.8046875,8.6171875 C11.3945312,8.6171875 11.0429688,8.9921875 11.0429688,9.4375 L11.0429688,9.4375 L11.0429688,21.484375 C11.0429688,21.9414062 11.3945312,22.328125 11.8046875,22.328125 C12.2148438,22.328125 12.5664062,21.9414062 12.5664062,21.484375 L12.5664062,21.484375 L12.578125,9.4375 C12.578125,8.9921875 12.2148438,8.6171875 11.8046875,8.6171875 Z M16.1875,8.6171875 C15.7890625,8.6171875 15.4492188,8.9921875 15.4375,9.4375 L15.4375,9.4375 L14.9921875,21.484375 C14.9804688,21.9414062 15.2851563,22.328125 15.71875,22.328125 C16.140625,22.328125 16.4335938,21.9765625 16.4453125,21.4960938 L16.4453125,21.4960938 L16.9375,9.44921875 C16.9492188,8.98046875 16.609375,8.6171875 16.1875,8.6171875 Z M13.7148438,2.72265625 L9.89453125,2.72265625 C9.2265625,2.72265625 8.76953125,3.16796875 8.76953125,3.7890625 L8.76953125,3.7890625 L8.76953125,5.2890625 L14.8515625,5.2890625 L14.8515625,3.7890625 C14.8515625,3.16796875 14.3828125,2.72265625 13.7148438,2.72265625 L13.7148438,2.72265625 Z"></path>
            </g>
        </g>
    </g>
</svg>