<?xml version="1.0" encoding="UTF-8"?>
<svg width="145px" height="160px" viewBox="0 0 145 160" version="1.1" xmlns="http://www.w3.org/2000/svg" xmlns:xlink="http://www.w3.org/1999/xlink">
    <!-- Generator: Sketch 59.1 (86144) - https://sketch.com -->
    <title>undraw_enter_uhqk</title>
    <desc>Created with Sketch.</desc>
    <g id="Main" stroke="none" stroke-width="1" fill="none" fill-rule="evenodd">
        <g id="Sign-up" transform="translate(-358.000000, -661.000000)" fill-rule="nonzero">
            <g id="undraw_enter_uhqk" transform="translate(358.000000, 661.000000)">
                <path d="M98.3505494,99.1612028 C177.187082,151.801768 151.564855,171.416877 49.1752747,153.551763 C22.4223529,148.883864 0,129.200279 0,99.1612028 C0,69.1221261 22.0165309,44.7706422 49.1752747,44.7706422 C76.3340184,44.7706422 73.3330991,82.4565982 98.3505494,99.1612028 Z" id="Path" fill="#4C3F54"></path>
                <ellipse id="Oval" fill="#000000" opacity="0.1" cx="105.321101" cy="147.706422" rx="31.1926606" ry="2.75229358"></ellipse>
                <ellipse id="Oval" fill="#000000" opacity="0.1" cx="44.0366972" cy="55.9633028" rx="16.5137615" ry="2.75229358"></ellipse>
                <path d="M43.1159248,62.7522936 C28.6297663,62.7494477 15.4287699,70.9970464 9.17431193,83.9580269 C16.2982855,76.1512729 26.4222679,71.702625 37.0378988,71.7142987 C57.8132123,71.7142987 74.6558964,88.4210979 74.6558964,109.028823 C74.664378,114.604015 73.407876,120.109627 70.9795154,125.137615 C77.2685116,118.27935 80.7474259,109.337823 80.733945,100.066819 C80.733945,79.4590935 63.8912383,62.7522936 43.1159248,62.7522936 Z" id="Path" fill="#000000" opacity="0.1"></path>
                <path d="M74.4954128,109.094636 C74.5038316,114.702764 73.2503681,120.240903 70.8278796,125.298594 C63.7211301,133.151472 53.6216242,137.626402 43.0316594,137.614679 C22.306583,137.614679 5.50458716,120.809147 5.50458716,100.079687 C5.49616696,94.4715552 6.74963184,88.9334131 9.17212415,83.8757193 C16.2788704,76.0228442 26.3783709,71.547914 36.9683314,71.559633 C57.6934152,71.559633 74.4954128,88.3651553 74.4954128,109.094636 Z" id="Path" fill="#4C3F54" opacity="0.3"></path>
                <path d="M42.9359604,137.614678 C22.0940275,137.614678 5.13774692,120.658535 5.13774692,99.8166047 C5.12273752,94.1683399 6.3856256,88.5898361 8.83197843,83.4988217 C15.1164099,70.3699239 28.3805344,62.0154845 42.9359604,62.0183494 C63.777884,62.0183494 80.733945,78.9745841 80.733945,99.8166047 C80.733945,109.841493 76.7525299,119.455974 69.6638885,126.544632 C62.5752471,133.63329 52.9608016,137.614678 42.9359604,137.614678 Z M42.9359604,62.3879781 C28.6149265,62.3879781 15.3590945,70.7371929 9.16532775,83.6587413 C6.74291309,88.699849 5.49242311,94.2236981 5.50737113,99.8166121 C5.50737113,120.454777 22.2977987,137.245058 42.9359585,137.245058 C52.8627789,137.245058 62.3832275,133.302655 69.4025577,126.283309 C76.4218878,119.263962 80.3643168,109.743479 80.3643168,99.8166121 C80.3643168,79.178349 63.5740296,62.3879781 42.9359604,62.3879781 L42.9359604,62.3879781 Z" id="Shape" fill="#FFFFFF"></path>
                <path d="M128.667273,138.081856 C125.937158,141.62864 126.249348,146.422018 126.249348,146.422018 C126.249348,146.422018 130.987932,145.464929 133.718049,141.918144 C136.448167,138.371359 136.135973,133.577982 136.135973,133.577982 C136.135973,133.577982 131.397389,134.535071 128.667273,138.081856 Z" id="Path" fill="#FEF2E3"></path>
                <path d="M130.939256,139.089936 C130.396712,143.548747 126.724056,146.788991 126.724056,146.788991 C126.724056,146.788991 123.931045,142.800075 124.473588,138.341258 C125.016132,133.882442 128.688788,130.642202 128.688788,130.642202 C128.688788,130.642202 131.481799,134.631124 130.939256,139.089936 Z" id="Path" fill="#D13526"></path>
                <circle id="Oval" fill="#F2BF58" cx="31.9266055" cy="19.0825688" r="15.412844"></circle>
                <path d="M65.6880734,35.2183675 C65.6955857,50.7236443 56.4969899,56.1412639 45.1477615,56.146789 C44.8841372,56.146789 44.6217848,56.1440871 44.3607043,56.1383212 C43.8347116,56.1272098 43.3141952,56.1034552 42.7991551,56.0670575 C32.5557434,55.3454864 24.5941473,49.6582348 24.587156,35.2383636 C24.5799234,20.3155814 43.6089586,1.47405693 45.0360683,0.0809051009 C45.0373156,0.0809051009 45.0373156,0.0809051009 45.0385776,0.079638937 C45.0927959,0.0265432316 45.1205425,0 45.1205425,0 C45.1205425,0 65.6805519,19.7143457 65.6880734,35.2183675 Z" id="Path" fill="#486824"></path>
                <path d="M44.2458125,53.4320061 L51.7653215,42.9750557 L44.2274293,54.5795467 L44.2078233,55.7798165 C43.6812359,55.768776 43.160131,55.7451731 42.6445085,55.7090078 L43.4476653,40.2960619 L43.4413036,40.1767979 L43.4551575,40.1541855 L43.5314869,38.697769 L35.9633028,27.0716959 L43.5536827,37.6067244 L43.572779,37.9155726 L44.1795133,26.270487 L37.6996139,14.2559356 L44.2580501,24.2239818 L44.8839434,0.0803480859 L44.8864168,0 L44.8864556,0.0790900069 L44.7897055,19.1188443 L51.2297352,11.5676468 L44.7627218,20.7585436 L44.5973506,31.1855756 L50.6118956,21.1763177 L44.5741148,32.7185586 L44.4822413,38.5165156 L53.2110092,24.5837502 L44.4491323,40.5391466 L44.2458125,53.4320061 Z" id="Path" fill="#323030"></path>
                <path d="M106.008348,43.9018697 C104.016993,40.5365088 100.077258,40.3796672 100.077258,40.3796672 C100.077258,40.3796672 96.2382089,39.8886484 93.7754847,45.0141329 C91.4800289,49.7915079 88.3120068,54.4041601 93.2654564,55.5225078 L94.1601942,52.7371993 L94.7143006,55.7298722 C95.4195767,55.7806062 96.1271002,55.7927 96.8336977,55.7660991 C102.13844,55.5948011 107.190407,55.8162171 107.02775,53.9123185 C106.811516,51.3813541 107.92443,47.1400185 106.008348,43.9018697 Z" id="Path" fill="#2F2E41"></path>
                <polygon id="Path" fill="#A0616A" points="96.8807339 75.2293578 97.3865883 80.3669725 109.104871 79.0826624 109.357798 75.2293578"></polygon>
                <path d="M95.8121208,77.8242792 L95.4734324,80.7800431 C95.4734324,80.7800431 91.5784959,86.1848675 91.9171824,95.4744111 C92.2558689,104.763955 86.5828185,146.060196 90.6470992,146.397996 C94.7113799,146.735796 101.993215,147.2425 102.331905,145.975744 C102.670595,144.708989 103.347974,96.6567163 103.347974,96.6567163 C103.347974,96.6567163 105.126097,146.035705 108.174312,146.204598 C111.222517,146.37349 121.46789,146.711301 121.46789,145.444544 C121.46789,144.177787 112.492606,87.6205245 112.492606,87.6205245 L111.053173,82.8912963 L109.61374,77.0642202 C109.61374,77.0642202 100.638454,78.5843271 98.1829522,77.9931736 C95.7274505,77.4020201 95.8121208,77.8242792 95.8121208,77.8242792 Z" id="Path" fill="#2F2E41"></path>
                <circle id="Oval" fill="#A0616A" cx="99.8165138" cy="49.1743119" r="5.50458716"></circle>
                <path d="M108.990826,58.2639368 L107.985289,59.7611858 L107.341408,60.7189834 L106.259719,62.3288639 L100.880265,62.7522936 C100.880265,62.7522936 99.5734679,62.3203906 98.0655695,61.6894865 C97.5085896,61.4557518 96.9234652,61.1949187 96.3673154,60.9179974 C94.2097448,59.8458713 92.478384,58.5374717 94.4249212,57.6711379 C94.7705703,57.519245 95.102598,57.3367592 95.4172216,57.1257595 C95.7034846,56.9343134 95.9699674,56.7135585 96.2125528,56.4669057 C97.2249317,55.4288759 97.6709607,53.9461972 97.4043108,52.505293 L102.618243,51.7431193 C102.466784,53.0964005 103.781865,54.5724763 105.255839,55.7775597 C105.739978,56.1747383 106.242342,56.5414247 106.714903,56.8649264 C107.95383,57.7134788 108.990826,58.2639368 108.990826,58.2639368 Z" id="Path" fill="#A0616A"></path>
                <path d="M101.998467,59.6386114 C101.998467,59.6386114 96.8509119,58.7476041 95.6791092,56.8807339 C95.6791092,56.8807339 90.6152553,57.5171675 91.0337555,60.2326144 C91.4522557,62.9480614 95.6372594,77.7981651 95.6372594,77.7981651 C95.6372594,77.7981651 106.099769,75.7615785 109.949973,77.2890176 L112.293578,58.3657443 C112.293578,58.3657443 111.456576,56.4988742 109.866275,57.0080218 C108.275974,57.5171693 107.648222,57.0504504 107.648222,57.0504504 C107.648222,57.0504504 105.84867,59.6386114 101.998467,59.6386114 Z" id="Path" fill="#CDBEA7"></path>
                <path d="M106.383869,89.1743119 C106.383869,89.1743119 110.048527,93.1876156 108.003136,93.8565053 C105.957746,94.5253951 103.486239,91.1809702 103.486239,91.1809702 L106.383869,89.1743119 Z" id="Path" fill="#A0616A"></path>
                <path d="M107.788413,89.5412844 C107.788413,89.5412844 104.835507,91.5140896 105.932301,92.8292913 C107.029095,94.1444929 110.825688,91.6784873 110.825688,91.1852887 C110.825688,90.6920901 107.788413,89.5412844 107.788413,89.5412844 Z" id="Path" fill="#A0616A"></path>
                <path d="M100.550459,78.478087 L98.1477697,78.8990826 L96.573594,67.0270023 C96.6644256,64.8731421 96.5943523,62.7153825 96.3639773,60.5722956 C96.1883327,59.1409114 95.8950449,57.7650943 95.412844,56.8018554 C95.6994202,56.6115098 95.9661946,56.3920239 96.2090454,56.146789 C96.7856982,57.0755031 97.8379059,59.0423931 98.0640896,61.3393498 C98.1232017,61.9145347 98.1234796,62.4943979 98.0649187,63.069641 C97.6506621,67.0270023 97.733513,67.7848002 97.733513,67.7848002 L100.550459,78.478087 Z" id="Path" fill="#2F2E41"></path>
                <path d="M95.0541517,57.8669991 C95.0541517,57.8669991 91.0944683,56.7785878 90.7574736,59.1228593 C90.420479,61.4671307 90.8417218,67.4952517 91.7684575,69.7557978 C92.6951931,72.0163439 95.8966373,79.3840541 95.8966373,79.3840541 C95.8966373,79.3840541 101.70979,86.7517607 101.962537,88.509962 C102.215283,90.2681633 103.479011,92.1100917 103.479011,92.1100917 L107.522936,89.5146461 L99.603567,76.2025402 L96.1493727,66.9929088 C96.1493727,66.9929088 97.5816085,58.6205145 95.0541517,57.8669991 Z" id="Path" fill="#CDBEA7"></path>
                <path d="M110.280054,57.9816514 L112.189217,58.4011869 C112.189217,58.4011869 113.924819,65.6172026 113.230577,69.4769306 C112.536336,73.3366587 112.449556,74.6791738 112.449556,74.6791738 L111.842096,85.671009 C111.842096,85.671009 112.015656,92.7192094 110.800734,91.6284163 C109.585812,90.5376233 107.155963,90.0341811 107.155963,90.0341811 C107.155963,90.0341811 107.416302,86.9296155 108.370887,86.1744512 C108.370887,86.1744512 109.499029,80.3848591 108.804787,77.8676443 C108.110546,75.3504295 110.280054,57.9816514 110.280054,57.9816514 Z" id="Path" fill="#CDBEA7"></path>
                <path d="M111.192661,66.2329005 L108.995024,78.5321101 L107.659205,77.9901099 L109.986115,66.2328968 L107.492879,60.6453011 L105.321101,55.7798165 C105.825252,56.1708912 106.348382,56.5319423 106.840477,56.8504723 L108.163377,59.7022231 L111.192661,66.2329005 Z" id="Path" fill="#2F2E41"></path>
                <polygon id="Path" fill="#2F2E41" points="104.767337 43.7880972 100.846605 41.8348624 95.4321089 42.6339211 94.3119266 47.3394495 97.1004496 47.2374002 97.8795598 45.5086382 97.8795598 47.2089837 99.1662379 47.1618015 99.9130261 44.4095079 100.379816 47.3394495 104.954128 47.2506255"></polygon>
                <ellipse id="Oval" fill="#2F2E41" cx="97.2477064" cy="146.788991" rx="2.56880734" ry="1.10091743"></ellipse>
                <ellipse id="Oval" fill="#2F2E41" cx="114.862385" cy="146.788991" rx="2.56880734" ry="1.10091743"></ellipse>
                <path d="M48.3923276,119.592133 C42.9357592,123.141115 36.0091043,123.544375 30.1771667,120.652593 L30.582998,119.82521 C37.683993,123.311762 46.2397684,121.636704 51.4998137,115.730097 C56.7598589,109.823489 57.4325635,101.135706 53.1444149,94.4905543 C48.8562662,87.8454022 40.6602244,84.8746062 33.1070613,87.2276716 C25.5538983,89.5807371 20.4983023,96.6798659 20.7473437,104.583336 L19.8258295,104.611589 C19.5437088,95.6691556 25.6976854,87.8035146 34.4489473,85.9212032 C43.2002092,84.0388917 52.0467027,88.6780774 55.4700404,96.9448651 C58.8933782,105.211653 55.9148014,114.742504 48.3923276,119.592133 L48.3923276,119.592133 Z" id="Path" fill="#FFFFFF"></path>
                <path d="M40.3669725,102.752294 C37.6270034,103.357333 33.9804499,103.726076 31.3234041,103.341039 L34.6589066,105.875195 L25.3211009,111.883695 L25.8233165,112.66055 L35.1611462,106.65204 L36.0998495,110.729512 C36.8441656,108.15583 38.6848982,104.993736 40.3669725,102.752294 Z" id="Path" fill="#FFFFFF"></path>
            </g>
        </g>
    </g>
</svg>