<?xml version="1.0" encoding="UTF-8"?>
<svg width="21px" height="23px" viewBox="0 0 21 23" version="1.1" xmlns="http://www.w3.org/2000/svg" xmlns:xlink="http://www.w3.org/1999/xlink">
    <!-- Generator: Sketch 63.1 (92452) - https://sketch.com -->
    <title>Flower</title>
    <desc>Created with Sketch.</desc>
    <g id="Logo-&amp;-Theme" stroke="none" stroke-width="1" fill="none" fill-rule="evenodd">
        <g id="Icons/Flower" transform="translate(-2.000000, -1.000000)" fill="#486824">
            <g id="Flower">
                <path d="M2.03183761,1.53970603 C1.68113312,2.23455964 4.29041933,2.88411362 6.77242053,8.93315471 C9.25442172,14.9821958 10.6261683,23.2838985 10.7596163,23.3939338 C10.8930642,23.503969 12.5065274,23.503969 12.701025,23.3939338 C12.8955227,23.2838985 13.3609535,18.231623 14.2087065,15.1046954 C15.0564595,11.9777678 15.3271363,11.206179 16.5296114,9.25891914 C16.6902867,9.04600478 18.8881068,9.53304272 21.3505247,7.10983883 C22.7890456,5.34688348 22.4827385,3.12033903 22.5802984,2.42503036 C22.6778583,1.72972169 22.9887006,1.09115745 22.7890456,1.00969457 C22.5893905,0.928231683 20.9533677,1.37959869 19.5296276,1.63602312 C18.1058876,1.89244754 16.7676045,1.96576018 15.3388615,3.64726258 C13.9101186,5.32876497 13.6588056,8.23316285 14.0455635,8.36194043 C14.4291339,8.48965669 14.9438281,6.96392073 15.9014491,5.94602748 C16.85907,4.92813424 18.0869835,4.19187928 18.0869835,4.33967297 C18.0869835,4.53275349 15.7523094,6.82866283 14.2087065,10.7247006 C12.9397866,13.9352337 12.1100843,17.6360454 11.771662,18.1813114 C11.7431264,18.227288 11.6159301,18.2188492 11.5955014,18.2188492 C11.3327958,18.2188492 9.65066696,10.1861496 7.8638769,7.29256162 C6.4326812,4.78203967 2.3825421,0.844852424 2.03183761,1.53970603 Z"></path>
            </g>
        </g>
    </g>
</svg>